<?xml version="1.0" encoding="utf-8"?>
<!-- Uploaded to: SVG Repo, www.svgrepo.com, Generator: SVG Repo Mixer Tools -->
<svg fill="#000000" width="800px" height="800px" viewBox="0 0 32 32" version="1.1" xmlns="http://www.w3.org/2000/svg">
<title>cloud-snow</title>
<path d="M29.529 9.77c-0.83-1.11-2.013-1.917-3.38-2.257l-0.041-0.009c0.053-0.23 0.083-0.493 0.083-0.764 0-0.053-0.001-0.105-0.003-0.157l0 0.007c-0.066-1.024-0.511-1.932-1.194-2.597l-0.001-0.001c-0.909-0.909-2.165-1.471-3.552-1.471-0.831 0-1.616 0.202-2.306 0.56l0.028-0.013c-2.741-3.033-7.547-2.877-11.022-0.771-2.215 1.082-3.714 3.319-3.714 5.906 0 0.516 0.060 1.018 0.172 1.5l-0.009-0.044c-2.282 1.003-3.846 3.243-3.846 5.849 0 0.108 0.003 0.216 0.008 0.323l-0.001-0.015c-0.001 0.040-0.001 0.086-0.001 0.133 0 1.375 0.442 2.647 1.192 3.681l-0.013-0.018c0.864 1.125 2.21 1.843 3.724 1.843 0.036 0 0.071-0 0.107-0.001l-0.005 0 20.349-0.012c2.113-0.249 3.85-1.638 4.594-3.527l0.013-0.038c0.337-0.883 0.533-1.905 0.533-2.972 0-1.936-0.643-3.722-1.728-5.156l0.016 0.021zM28.395 16.931c-0.389 1.066-1.317 1.848-2.446 2.020l-0.017 0.002h-20.179c-0.034 0.002-0.075 0.003-0.115 0.003-0.701 0-1.324-0.335-1.717-0.853l-0.004-0.005c-0.419-0.601-0.669-1.346-0.669-2.15 0-0.046 0.001-0.093 0.002-0.139l-0 0.007c0-1.588 0.829-3.949 3.114-3.949 0.69-0 1.25-0.56 1.25-1.25 0-0.24-0.067-0.464-0.184-0.654l0.003 0.005c-1.411-2.327 0.109-4.384 2.004-5.533 1.194-0.725 2.633-1.163 4.172-1.187l0.007-0c0.073-0.004 0.158-0.006 0.244-0.006 1.67 0 3.136 0.875 3.964 2.191l0.011 0.019c0.196 0.321 0.526 0.544 0.91 0.591l0.006 0.001c0.048 0.007 0.104 0.011 0.161 0.011 0.34 0 0.648-0.139 0.87-0.363l0-0c0.435-0.425 1.031-0.687 1.688-0.687 0.686 0 1.306 0.286 1.746 0.745l0.001 0.001c0.26 0.24 0.434 0.57 0.472 0.94l0.001 0.006c-0.014 0.429-0.212 0.81-0.517 1.067l-0.002 0.002c-0.229 0.226-0.371 0.541-0.371 0.888 0 0.201 0.048 0.391 0.132 0.56l-0.003-0.007c0.212 0.416 0.637 0.696 1.127 0.696 0.058 0 0.115-0.004 0.171-0.011l-0.006 0.001c0.156-0.025 0.337-0.039 0.52-0.039 1.156 0 2.18 0.567 2.808 1.438l0.007 0.010c0.744 0.992 1.192 2.243 1.192 3.599 0 0.728-0.129 1.426-0.366 2.073l0.013-0.042zM19.68 24.875c-0.22-0.376-0.622-0.625-1.082-0.625-0.23 0-0.446 0.062-0.631 0.171l0.006-0.003-0.723 0.417v-0.835c0-0.69-0.56-1.25-1.25-1.25s-1.25 0.56-1.25 1.25v0 0.835l-0.723-0.417c-0.177-0.102-0.39-0.163-0.616-0.163-0.69 0-1.25 0.559-1.25 1.25 0 0.456 0.245 0.856 0.61 1.074l0.006 0.003 0.724 0.418-0.724 0.418c-0.381 0.219-0.633 0.623-0.633 1.087 0 0.69 0.559 1.25 1.25 1.25 0.234 0 0.452-0.064 0.639-0.176l-0.006 0.003 0.723-0.417v0.835c0 0.69 0.56 1.25 1.25 1.25s1.25-0.56 1.25-1.25v0-0.835l0.723 0.417c0.177 0.102 0.39 0.163 0.616 0.163 0.69 0 1.25-0.559 1.25-1.25 0-0.456-0.245-0.856-0.61-1.074l-0.006-0.003-0.724-0.418 0.724-0.418c0.376-0.22 0.625-0.622 0.625-1.082 0-0.23-0.062-0.446-0.171-0.631l0.003 0.006zM28.68 24.875c-0.22-0.376-0.622-0.625-1.082-0.625-0.23 0-0.446 0.062-0.631 0.171l0.006-0.003-0.723 0.417v-0.835c0-0.69-0.56-1.25-1.25-1.25s-1.25 0.56-1.25 1.25v0 0.835l-0.723-0.417c-0.177-0.102-0.39-0.163-0.616-0.163-0.69 0-1.25 0.559-1.25 1.25 0 0.456 0.245 0.856 0.61 1.074l0.006 0.003 0.724 0.418-0.724 0.418c-0.381 0.219-0.633 0.623-0.633 1.087 0 0.69 0.559 1.25 1.25 1.25 0.234 0 0.452-0.064 0.639-0.176l-0.006 0.003 0.723-0.417v0.835c0 0.69 0.56 1.25 1.25 1.25s1.25-0.56 1.25-1.25v0-0.835l0.723 0.417c0.177 0.102 0.39 0.163 0.616 0.163 0.69 0 1.25-0.559 1.25-1.25 0-0.456-0.245-0.856-0.61-1.074l-0.006-0.003-0.724-0.418 0.724-0.418c0.376-0.22 0.625-0.622 0.625-1.082 0-0.23-0.062-0.446-0.171-0.631l0.003 0.006zM10.68 24.875c-0.22-0.376-0.622-0.624-1.082-0.624-0.23 0-0.446 0.062-0.631 0.171l0.006-0.003-0.723 0.417v-0.835c0-0.69-0.56-1.25-1.25-1.25s-1.25 0.56-1.25 1.25v0 0.835l-0.723-0.417c-0.177-0.102-0.39-0.163-0.616-0.163-0.69 0-1.25 0.559-1.25 1.25 0 0.456 0.245 0.856 0.61 1.074l0.006 0.003 0.724 0.418-0.724 0.418c-0.381 0.219-0.633 0.623-0.633 1.087 0 0.69 0.559 1.25 1.25 1.25 0.234 0 0.452-0.064 0.639-0.176l-0.006 0.003 0.723-0.417v0.835c0 0.69 0.56 1.25 1.25 1.25s1.25-0.56 1.25-1.25v0-0.835l0.723 0.417c0.177 0.102 0.39 0.163 0.616 0.163 0.69 0 1.25-0.559 1.25-1.25 0-0.456-0.245-0.856-0.61-1.074l-0.006-0.003-0.724-0.418 0.724-0.418c0.376-0.22 0.625-0.622 0.625-1.082 0-0.23-0.062-0.446-0.171-0.631l0.003 0.006z"></path>
</svg>